<?xml version="1.0" encoding="utf-8"?>
<!-- Generator: Adobe Illustrator 28.1.0, SVG Export Plug-In . SVG Version: 6.00 Build 0)  -->
<svg version="1.1" id="Layer_1" xmlns="http://www.w3.org/2000/svg" xmlns:xlink="http://www.w3.org/1999/xlink" x="0px" y="0px"
	 viewBox="0 0 70 50.5" style="enable-background:new 0 0 70 50.5;" xml:space="preserve">
<style type="text/css">
	.st0{fill:#FFFFFF;}
</style>
<path d="M68.2,10.2C68.2,10.2,68.2,10.2,68.2,10.2C68.2,10.1,68.2,10.1,68.2,10.2c-0.9-1.9-2-3.5-3.4-4.9c-1.6-1.6-3.5-2.9-5.7-3.8
	h0c-1.7-0.7-3.7-1.1-5.7-1.2c-0.3,0-0.6,0-1,0c-0.1,0-0.3,0-0.4,0c0,0,0,0,0,0c-4.2,0.2-8.3,1.9-11.3,4.8c-0.1,0-0.1,0.1-0.1,0.1
	c-0.1,0.1-0.1,0.1-0.2,0.2C38.6,7.2,36.8,9,35,10.8c-1.8-1.8-3.6-3.6-5.4-5.3c-0.1-0.1-0.1-0.1-0.2-0.2c0,0-0.1-0.1-0.1-0.1
	c-3.1-3-7.1-4.7-11.3-4.8c0,0,0,0,0,0c-0.1,0-0.3,0-0.4,0c-0.3,0-0.6,0-1,0c-2,0.1-3.9,0.5-5.7,1.2h0c-2.1,0.9-4,2.1-5.7,3.8
	c-1.4,1.4-2.6,3-3.4,4.8c0,0,0,0,0,0.1c0,0,0,0,0,0c-1,2.2-1.5,4.4-1.6,6.8c0,1,0,2,0.2,3c0,0,0,0,0,0c0.4,2.5,1.3,4.9,2.8,7
	c0,0,0,0,0,0c0.6,0.8,1.2,1.6,1.9,2.3c3.2,3.3,6.6,6.6,9.8,9.8c1.3,1.3,2.7,2.7,4,4c0.5,0.5,1.1,0.8,1.8,0.8c0.5,0,1-0.2,1.4-0.5
	c0,0.1,0,0.3,0,0.5c0,1.1,0.4,2.1,1.2,2.9c0.8,0.8,1.8,1.2,2.9,1.2c1.1,0,2.1-0.4,2.9-1.2c0.2,0.9,0.6,1.8,1.4,2.5
	c0.8,0.6,1.7,1,2.7,1c0.7,0,1.3-0.2,1.9-0.5c0.6,0.3,1.3,0.5,1.9,0.5c1,0,1.9-0.3,2.7-1c0.8-0.6,1.2-1.5,1.4-2.5
	c0.8,0.7,1.8,1.2,2.9,1.2c1.1,0,2.1-0.4,2.9-1.2C47.5,46,48,45,48,43.8c0-0.2,0-0.3,0-0.5c0.4,0.3,0.9,0.5,1.4,0.5
	c0.6,0,1.2-0.3,1.8-0.8c1.3-1.3,2.7-2.7,4-4c3.2-3.2,6.5-6.5,9.8-9.8c0.7-0.7,1.4-1.5,1.9-2.3c0,0,0,0,0,0c1.4-2.1,2.4-4.5,2.8-7
	c0,0,0,0,0,0c0.1-1,0.2-2,0.2-3C69.7,14.6,69.2,12.3,68.2,10.2z"/>
<g>
	<path class="st0" d="M47.6,35.4c-5-5-10-10-15.1-15c-0.1-0.1-0.1-0.1-0.2-0.2c-0.3-0.3-0.3-0.8-0.1-1.2c0.4-0.7,1.2-0.8,1.8-0.2
		c3.5,3.5,7,7,10.4,10.5c0.8,0.8,2,0.9,2.8,0.2c0.9-0.7,1.2-1.8,0.6-2.8c-0.2-0.3-0.4-0.5-0.7-0.8c-6.3-6.3-12.7-12.7-19-19
		c-0.1-0.1-0.1-0.1-0.2-0.2c0,0,0,0,0,0c-2.8-2.8-6.5-4.3-10.2-4.4c-0.4,0-0.8,0-1.2,0c-1.8,0.1-3.4,0.4-5,1.1
		C9.8,4,8.1,5.2,6.6,6.6c-1.3,1.3-2.3,2.7-3,4.3c0,0,0,0,0,0c-0.9,1.9-1.4,3.9-1.4,6c0,0.9,0,1.8,0.2,2.7c0.3,2.2,1.1,4.3,2.4,6.2
		c0.5,0.7,1.1,1.4,1.7,2c4.6,4.6,9.2,9.2,13.8,13.8c0.3,0.3,0.5,0.3,0.8,0c1.4-1.5,1.4-3.9-0.1-5.4c-2-2-3.9-3.9-5.9-5.9
		c-0.1-0.1-0.2-0.2-0.3-0.3c-0.3-0.5-0.2-0.9,0.2-1.4c0.9-1,1.7-2.1,2.1-3.4c1-3.4,0.3-6.4-2.1-9c-0.4-0.5-0.5-1.1,0-1.6
		c0.4-0.4,1.1-0.4,1.6,0.1c0.6,0.6,1.2,1.3,1.6,2c2.3,3.9,2.1,8.6-0.7,12.3c-0.2,0.3-0.2,0.4,0,0.6c5.9,5.9,11.9,11.8,17.8,17.8
		c0.1,0.1,0.2,0.2,0.3,0.3c0.8,0.7,2,0.7,2.9,0c0.8-0.6,1-1.8,0.4-2.8c-0.2-0.3-0.5-0.5-0.7-0.8c-4.2-4.2-8.4-8.4-12.6-12.6
		c-0.3-0.3-0.6-0.6-0.9-0.9c-0.3-0.4-0.4-0.8-0.2-1.3c0.4-0.7,1.2-0.8,1.9-0.2C31.6,34.6,37,40,42.3,45.4c0.9,0.8,2.2,0.9,3.1,0
		c0.8-0.9,0.8-2.2,0-3.1c-0.9-0.9-1.9-1.8-2.8-2.8c-4.4-4.4-8.8-8.8-13.2-13.2c-0.1-0.1-0.2-0.2-0.2-0.2c-0.4-0.4-0.4-1.1,0-1.5
		c0.4-0.4,1-0.5,1.5-0.1c0.1,0.1,0.2,0.2,0.3,0.3c4.6,4.6,9.1,9.1,13.7,13.7c0.9,0.9,2.2,0.9,3.1,0C48.5,37.6,48.5,36.3,47.6,35.4z"
		/>
	<path class="st0" d="M24.6,42.3c-0.9,0.9-0.9,2.2,0,3.1c0.9,0.8,2.2,0.8,3.1,0c0.4-0.4,0.8-0.8,1.2-1.2l-3.1-3
		C25.5,41.5,25,41.9,24.6,42.3z"/>
	<path class="st0" d="M31.6,47.8c0.5,0.4,1,0.6,1.6,0.5l-2.3-2.2C30.9,46.7,31.1,47.4,31.6,47.8z"/>
	<path class="st0" d="M66.4,11C66.4,10.9,66.4,10.9,66.4,11c-0.7-1.6-1.7-3-3-4.3c-1.5-1.5-3.2-2.6-5-3.3c-1.6-0.6-3.3-1-5-1.1
		c-0.4,0-0.8,0-1.2,0c-3.7,0.1-7.4,1.6-10.2,4.4c0,0,0,0,0,0c-0.1,0.1-0.1,0.1-0.2,0.2c-1.8,1.8-3.6,3.6-5.4,5.4
		c1.1,1.1,2.3,2.3,3.4,3.4l0,0c0.5,0.5,1,1,1.5,1.5c2.5,2.4,4.9,4.9,7.3,7.3c0,0,0.1,0.1,0.1,0.1c0.3,0.2,0.6,0.6,0.9,1.1
		c0.5,0.9,0.6,1.9,0.4,2.9c-0.2,1-0.8,1.8-1.6,2.5c-0.5,0.4-1.1,0.6-1.8,0.7c0.6,0.6,1.2,1.2,1.9,1.9l0,0c1.3-1.3,2.6-2.6,3.9-3.9
		c0.2-0.2,0.2-0.3,0-0.6c-2.8-3.7-3-8.4-0.7-12.3c0.4-0.8,1-1.4,1.6-2c0.5-0.5,1.1-0.5,1.6-0.1c0.5,0.4,0.4,1.1,0,1.6
		c-2.4,2.6-3.1,5.6-2.1,9c0.4,1.3,1.1,2.4,2.1,3.4c0.4,0.4,0.5,0.9,0.2,1.4c-0.1,0.1-0.2,0.2-0.3,0.3c-1.7,1.7-3.3,3.3-5,5
		c0.2,0.5,0.3,1,0.3,1.5c0,1.1-0.4,2.1-1.2,2.9c-0.3,0.3-0.6,0.5-0.9,0.7c0.2,0.5,0.4,0.9,0.8,1.2c0.3,0.3,0.5,0.3,0.8,0
		c4.6-4.6,9.2-9.2,13.8-13.8c0.6-0.7,1.2-1.3,1.7-2c1.3-1.9,2.1-4,2.4-6.2c0.1-0.9,0.2-1.8,0.2-2.7C67.8,14.9,67.3,12.9,66.4,11z"/>
</g>
</svg>
